<svg width="28" height="28" viewBox="0 0 28 28" fill="none" xmlns="http://www.w3.org/2000/svg">
<g clip-path="url(#clip0_3997_2538)">
<path d="M3.14998 5.6H5.94998V9.8H19.95V5.6H22.75V12.6H25.55V5.6C25.55 4.06 24.29 2.8 22.75 2.8H16.898C16.31 1.176 14.77 0 12.95 0C11.13 0 9.58998 1.176 9.00198 2.8H3.14998C1.60998 2.8 0.349976 4.06 0.349976 5.6V25.2C0.349976 26.74 1.60998 28 3.14998 28H11.55V25.2H3.14998V5.6ZM12.95 2.8C13.72 2.8 14.35 3.43 14.35 4.2C14.35 4.97 13.72 5.6 12.95 5.6C12.18 5.6 11.55 4.97 11.55 4.2C11.55 3.43 12.18 2.8 12.95 2.8Z"  fill="#00162a" opacity="0.6" />
<path d="M25.55 14.7L17.864 22.4L13.65 18.2L11.55 20.3L17.864 26.6L27.65 16.8L25.55 14.7Z"  fill="#00162a" opacity="0.6" />
</g>
<defs>
<clipPath id="clip0_3997_2538">
<rect width="27.3" height="28" fill="#00162a" opacity="0.6" transform="translate(0.349976)"/>
</clipPath>
</defs>
</svg>
