<svg width="10" height="15" viewBox="0 0 10 15" fill="none" xmlns="http://www.w3.org/2000/svg">
<path d="M13.2 1.2L12 0L10.8 1.2L9.6 0L8.4 1.2L7.2 0L6 1.2L4.8 0L3.6 1.2L2.4 0V11.2H0V13.6C0 14.928 1.072 16 2.4 16H12C13.328 16 14.4 14.928 14.4 13.6V0L13.2 1.2ZM9.6 14.4H2.4C1.96 14.4 1.6 14.04 1.6 13.6V12.8H9.6V14.4ZM12.8 13.6C12.8 14.04 12.44 14.4 12 14.4C11.56 14.4 11.2 14.04 11.2 13.6V11.2H4V2.4H12.8V13.6Z" fill="#00162a" opacity="0.6"/>
<path d="M9.6 4H4.8V5.6H9.6V4Z" fill="#00162a" opacity="0.6"/>
<path d="M12 4H10.4V5.6H12V4Z" fill="#00162a" opacity="0.6"/>
<path d="M9.6 6.4H4.8V8H9.6V6.4Z" fill="#00162a" opacity="0.6"/>
<path d="M12 6.4H10.4V8H12V6.4Z" fill="#00162a" opacity="0.6"/>
</svg>
